<svg 
id="visual" 
viewBox="0 0 900 600"
width="900" 
height="600" 
xmlns="http://www.w3.org/2000/svg" 
xmlns:xlink="http://www.w3.org/1999/xlink" 
version="1.1">
<rect x="0" y="0" width="900" height="600" fill="#d2d2d2"></rect>
<path d="M0 404L21.5 411C43 418 86 432 128.8 429.2C171.7 426.3 214.3 406.7 257.2 400.2C300 393.7 343 400.3 385.8 398.5C428.7 396.7 471.3 386.3 514.2 376.8C557 367.3 600 358.7 642.8 360.2C685.7 361.7 728.3 373.3 771.2 387.2C814 401 857 417 878.5 425L900 433L900 601L878.5 601C857 601 814 601 771.2 601C728.3 601 685.7 601 642.8 601C600 601 557 601 514.2 601C471.3 601 428.7 601 385.8 601C343 601 300 601 257.2 601C214.3 601 171.7 601 128.8 601C86 601 43 601 21.5 601L0 601Z" fill="#05ae00"></path><path d="M0 439L21.5 441.8C43 444.7 86 450.3 128.8 456.7C171.7 463 214.3 470 257.2 466.3C300 462.7 343 448.3 385.8 443.7C428.7 439 471.3 444 514.2 438.8C557 433.7 600 418.3 642.8 418.8C685.7 419.3 728.3 435.7 771.2 447.2C814 458.7 857 465.3 878.5 468.7L900 472L900 601L878.5 601C857 601 814 601 771.2 601C728.3 601 685.7 601 642.8 601C600 601 557 601 514.2 601C471.3 601 428.7 601 385.8 601C343 601 300 601 257.2 601C214.3 601 171.7 601 128.8 601C86 601 43 601 21.5 601L0 601Z" fill="#77a900"></path><path d="M0 463L21.5 470.5C43 478 86 493 128.8 497.2C171.7 501.3 214.3 494.7 257.2 485.2C300 475.7 343 463.3 385.8 454.8C428.7 446.3 471.3 441.7 514.2 448.3C557 455 600 473 642.8 485.3C685.7 497.7 728.3 504.3 771.2 507.2C814 510 857 509 878.5 508.5L900 508L900 601L878.5 601C857 601 814 601 771.2 601C728.3 601 685.7 601 642.8 601C600 601 557 601 514.2 601C471.3 601 428.7 601 385.8 601C343 601 300 601 257.2 601C214.3 601 171.7 601 128.8 601C86 601 43 601 21.5 601L0 601Z" fill="#a8a300"></path><path d="M0 494L21.5 498.5C43 503 86 512 128.8 513.3C171.7 514.7 214.3 508.3 257.2 505.7C300 503 343 504 385.8 507.7C428.7 511.3 471.3 517.7 514.2 517C557 516.3 600 508.7 642.8 508.3C685.7 508 728.3 515 771.2 518.5C814 522 857 522 878.5 522L900 522L900 601L878.5 601C857 601 814 601 771.2 601C728.3 601 685.7 601 642.8 601C600 601 557 601 514.2 601C471.3 601 428.7 601 385.8 601C343 601 300 601 257.2 601C214.3 601 171.7 601 128.8 601C86 601 43 601 21.5 601L0 601Z" fill="#d29a00"></path><path d="M0 528L21.5 529.8C43 531.7 86 535.3 128.8 542.3C171.7 549.3 214.3 559.7 257.2 564.2C300 568.7 343 567.3 385.8 560.8C428.7 554.3 471.3 542.7 514.2 543C557 543.3 600 555.7 642.8 561.5C685.7 567.3 728.3 566.7 771.2 564C814 561.3 857 556.7 878.5 554.3L900 552L900 601L878.5 601C857 601 814 601 771.2 601C728.3 601 685.7 601 642.8 601C600 601 557 601 514.2 601C471.3 601 428.7 601 385.8 601C343 601 300 601 257.2 601C214.3 601 171.7 601 128.8 601C86 601 43 601 21.5 601L0 601Z" 
fill="#fc8a00">
</path>
</svg>